<svg width="1024" height="1024" viewBox="0 0 1024 1024" fill="none" xmlns="http://www.w3.org/2000/svg">
<g clip-path="url(#clip0_256_2)">
<path d="M203.598 1023.77C181.756 1023.77 159.232 1018.76 136.025 1008.75C113.274 998.74 93.935 982.813 78.0088 960.97C62.5377 938.672 54.8021 909.32 54.8021 872.915C54.8021 818.762 75.9612 770.07 118.279 726.839C161.052 683.153 227.715 649.023 318.266 624.45C332.372 620.809 349.436 617.851 369.457 615.576C389.479 613.3 409.955 611.48 430.887 610.115V552.777C430.887 515.917 424.061 485.2 410.41 460.626C397.214 435.598 370.822 423.083 331.235 423.083C313.033 423.083 293.694 428.317 273.218 438.783C252.741 448.795 236.588 462.447 224.757 479.739C213.381 497.031 211.561 516.599 219.296 538.442C220.207 542.538 214.974 547.544 203.598 553.459C192.222 558.92 178.116 564.153 161.28 569.159C144.899 573.71 129.2 577.35 114.184 580.081C99.1678 582.356 88.9296 582.811 83.4692 581.446L72.5484 553.459C79.3739 523.425 94.6175 495.894 118.279 470.865C141.941 445.837 169.698 424.221 201.55 406.019C233.403 387.361 265.255 373.026 297.107 363.015C329.414 353.004 357.399 347.998 381.061 347.998C455.231 347.998 504.147 377.805 527.809 437.418C557.386 403.743 589.238 380.535 623.366 367.793C657.493 354.596 687.98 347.998 714.827 347.998C769.886 347.998 813.797 362.105 846.559 390.319C879.322 418.533 902.756 453.8 916.862 496.121C931.423 538.442 938.703 581.218 938.703 624.45C930.058 634.006 917.999 643.335 902.528 652.436C887.057 661.082 872.041 668.363 857.48 674.279H551.698C551.698 680.195 551.471 686.566 551.015 693.392V712.505C551.015 745.269 557.158 778.034 569.444 810.798C581.73 843.563 599.703 870.867 623.365 892.71C647.482 914.098 676.604 924.792 710.731 924.792C729.843 924.792 748.272 922.972 766.018 919.331C783.764 915.236 803.558 907.045 825.4 894.758C847.241 882.016 873.633 862.676 904.575 836.737C910.491 839.923 916.179 845.383 921.639 853.119C927.555 860.856 931.423 866.544 933.243 870.184C896.84 912.505 864.078 944.815 834.955 967.113C805.833 988.956 777.394 1003.75 749.637 1011.48C722.335 1019.67 693.213 1023.77 662.271 1023.77C622.228 1023.77 583.322 1011.25 545.555 986.226C508.242 961.197 478.893 925.93 457.506 880.423C417.918 929.115 374.008 965.293 325.774 988.956C277.541 1012.16 236.815 1023.77 203.598 1023.77ZM257.519 924.792C281.181 924.792 309.393 917.511 342.155 902.949C375.373 887.932 408.135 864.269 440.442 831.959C436.802 817.397 434.3 803.745 432.934 791.003C431.569 778.261 430.887 762.334 430.887 743.221V677.009C416.781 677.92 402.902 679.285 389.251 681.105C376.055 682.47 364.224 684.291 353.759 686.566C302.795 697.942 262.07 716.828 231.582 743.221C201.095 769.615 185.852 801.925 185.852 840.15C185.852 873.825 194.497 896.351 211.788 907.727C229.535 919.104 244.778 924.792 257.519 924.792ZM557.841 607.385H785.812C803.104 607.385 811.749 599.193 811.749 582.811C811.749 537.76 802.194 499.307 783.082 467.452C763.971 435.598 734.621 419.67 695.033 419.67C681.382 419.67 665.229 424.221 646.572 433.322C627.916 442.424 610.17 460.399 593.334 487.248C576.952 514.096 565.121 554.142 557.841 607.385Z" fill="white"/>
<path d="M531.436 338.994L538.264 335.034L915.13 117.398C891.07 145.629 882.226 178.868 893.924 198.772L532.088 407.757C530.44 396.341 527.679 384.997 523.824 373.828C523.065 371.675 522.289 369.535 521.45 367.382C520.966 365.333 520.672 363.201 520.672 361.007C520.672 352.057 524.904 344.101 531.436 338.994Z" fill="#FCD006"/>
<path d="M961.829 5.02889e-06C977.467 27.6946 961.555 62.4794 936.347 89.1729L529.032 324.415L527.55 325.276C523.697 327.303 519.272 328.472 514.575 328.472C506.119 328.472 498.553 324.696 493.402 318.741C492.905 318.095 492.385 317.443 491.871 316.797C483.059 306.099 473.198 296.599 462.566 288.346L961.829 5.02889e-06Z" fill="#FCD006"/>
</g>
<defs>
<clipPath id="clip0_256_2">
<rect width="915" height="1024" fill="white" transform="translate(54)"/>
</clipPath>
</defs>
</svg>
