<svg width="1024" height="1024" viewBox="0 0 1024 1024" fill="none" xmlns="http://www.w3.org/2000/svg">
<path d="M239.331 906.555C219.989 906.555 200.043 902.122 179.491 893.257C159.343 884.392 142.217 870.288 128.114 850.946C114.413 831.201 107.562 805.209 107.562 772.972C107.562 725.02 126.3 681.903 163.776 643.621C201.654 604.937 260.688 574.715 340.878 552.955C353.37 549.731 368.481 547.112 386.211 545.097C403.942 543.082 422.075 541.47 440.611 540.261V489.488C440.611 456.848 434.567 429.648 422.478 407.888C410.792 385.725 387.42 374.644 352.363 374.644C336.244 374.644 319.118 379.278 300.985 388.546C282.851 397.411 268.546 409.5 258.069 424.812C247.995 440.125 246.383 457.452 253.234 476.795C254.04 480.421 249.405 484.854 239.331 490.092C229.257 494.928 216.766 499.562 201.856 503.995C187.349 508.024 173.447 511.248 160.149 513.666C146.851 515.681 137.785 516.084 132.949 514.875L123.278 490.092C129.323 463.497 142.822 439.118 163.776 416.955C184.73 394.792 209.311 375.651 237.518 359.532C265.725 343.011 293.933 330.318 322.14 321.452C350.751 312.587 375.533 308.155 396.487 308.155C462.17 308.155 505.488 334.549 526.443 387.337C552.635 357.518 580.843 336.967 611.065 325.684C641.287 313.998 668.285 308.155 692.06 308.155C740.819 308.155 779.705 320.647 808.718 345.63C837.731 370.614 858.484 401.844 870.976 439.319C883.871 476.795 890.318 514.673 890.318 552.955C882.662 561.417 871.983 569.678 858.283 577.737C844.582 585.393 831.284 591.841 818.389 597.079H547.598C547.598 602.318 547.397 607.959 546.993 614.004V630.928C546.993 659.941 552.433 688.955 563.313 717.968C574.193 746.981 590.11 771.159 611.064 790.501C632.421 809.441 658.211 818.91 688.433 818.91C705.358 818.91 721.678 817.298 737.393 814.075C753.109 810.448 770.638 803.195 789.98 792.315C809.322 781.032 832.694 763.906 860.095 740.937C865.334 743.758 870.371 748.593 875.206 755.444C880.445 762.294 883.87 767.331 885.482 770.555C853.245 808.03 824.232 836.641 798.442 856.386C772.652 875.728 747.467 888.824 722.887 895.675C698.709 902.928 672.919 906.555 645.518 906.555C610.057 906.555 575.604 895.473 542.158 873.31C509.115 851.147 483.124 819.918 464.185 779.621C429.127 822.738 390.241 854.774 347.527 875.728C304.813 896.279 268.748 906.555 239.331 906.555ZM287.083 818.91C308.037 818.91 333.02 812.463 362.034 799.568C391.45 786.27 420.463 765.316 449.074 736.706C445.85 723.811 443.634 711.722 442.425 700.439C441.216 689.156 440.611 675.052 440.611 658.128V599.497C428.12 600.303 415.829 601.512 403.74 603.124C392.054 604.332 381.577 605.944 372.309 607.959C327.177 618.033 291.112 634.756 264.114 658.128C237.115 681.5 223.616 710.11 223.616 743.959C223.616 773.778 231.272 793.725 246.585 803.799C262.3 813.873 275.8 818.91 287.083 818.91ZM553.038 537.844H754.923C770.235 537.844 777.891 530.59 777.891 516.084C777.891 476.19 769.429 442.14 752.505 413.932C735.58 385.725 709.589 371.621 674.531 371.621C662.443 371.621 648.137 375.651 631.616 383.71C615.094 391.769 599.379 407.687 584.469 431.461C569.963 455.236 559.485 490.697 553.038 537.844Z" fill="white"/>
<path d="M529.654 300.182L535.701 296.675L869.442 103.957C848.135 128.956 840.303 158.389 850.663 176.014L530.232 361.072C528.773 350.963 526.328 340.917 522.913 331.028C522.241 329.121 521.554 327.226 520.812 325.319C520.383 323.505 520.122 321.617 520.122 319.674C520.122 311.749 523.87 304.704 529.654 300.182Z" fill="#FCD006"/>
<path d="M910.797 5.35751e-05C924.646 24.5239 910.555 55.326 888.231 78.9633L527.526 287.272L526.213 288.034C522.801 289.829 518.883 290.864 514.723 290.864C507.234 290.864 500.535 287.52 495.973 282.248C495.532 281.676 495.072 281.098 494.617 280.526C486.814 271.053 478.081 262.641 468.665 255.333L910.797 5.35751e-05Z" fill="#FCD006"/>
</svg>
