<svg width="200" height="200" viewBox="0 0 200 200" xmlns="http://www.w3.org/2000/svg" fill="#ffffff">
  <path
    d="M183.333 100C183.333 137.333 158.833 168.917 125 179.5V158.333C125 151.208 122 144.833 117.25 140.25C139.083 136.292 150 123.583 150 100C150 89.7918 147.917 81.7084 143.833 75.4168C145.667 68.2918 146.75 58.1668 141.667 50.0001C131.833 50.0001 124.958 55.7918 120.917 60.5418C114.875 59.0834 107.917 58.3334 100 58.3334C92.5001 58.3334 85.5834 59.1668 79.4168 60.8751C75.4168 56.0834 68.4168 50.0001 58.3334 50.0001C52.4168 59.5001 54.8334 69.7501 57.0834 75.5001C52.5834 81.7918 50.0001 89.8751 50.0001 100C50.0001 123.583 60.9168 136.292 82.7501 140.25C79.9584 142.958 77.7918 146.25 76.4584 150H66.6668C60.6668 150 58.3334 147.333 55.1251 143C51.9167 138.667 48.4584 135.75 44.3334 134.542C42.1251 134.292 40.6251 136.083 42.5834 137.667C49.1251 142.375 49.5834 150.083 52.2084 155.125C54.5834 159.667 59.5001 162.5 65.0418 162.5H75.0001V179.5C41.1668 168.917 16.6667 137.333 16.6667 100C16.6667 53.9584 53.9584 16.6667 100 16.6667C146.042 16.6667 183.333 53.9584 183.333 100Z">
  </path>
</svg>